<svg xmlns="http://www.w3.org/2000/svg" viewBox="-2 -2 70 42" width="700" height="420">
<rect x="-2" y="-2" width="70" height="42" fill="#ffffff"/>
<line x1="1.000" y1="0.000" x2="1.000" y2="21.000" stroke="#111111" stroke-width="0.04"/>
<line x1="2.000" y1="0.000" x2="2.000" y2="21.000" stroke="#111111" stroke-width="0.04"/>
<line x1="3.000" y1="0.000" x2="3.000" y2="21.000" stroke="#111111" stroke-width="0.04"/>
<line x1="4.000" y1="0.000" x2="4.000" y2="21.000" stroke="#111111" stroke-width="0.04"/>
<line x1="5.000" y1="0.000" x2="5.000" y2="21.000" stroke="#111111" stroke-width="0.04"/>
<line x1="6.000" y1="0.000" x2="6.000" y2="21.000" stroke="#111111" stroke-width="0.04"/>
<line x1="7.000" y1="0.000" x2="7.000" y2="21.000" stroke="#111111" stroke-width="0.04"/>
<line x1="8.000" y1="0.000" x2="8.000" y2="21.000" stroke="#111111" stroke-width="0.04"/>
<line x1="9.000" y1="0.000" x2="9.000" y2="21.000" stroke="#111111" stroke-width="0.04"/>
<line x1="10.000" y1="0.000" x2="10.000" y2="21.000" stroke="#111111" stroke-width="0.04"/>
<line x1="11.000" y1="0.000" x2="11.000" y2="21.000" stroke="#111111" stroke-width="0.04"/>
<line x1="12.000" y1="0.000" x2="12.000" y2="21.000" stroke="#111111" stroke-width="0.04"/>
<line x1="13.000" y1="0.000" x2="13.000" y2="21.000" stroke="#111111" stroke-width="0.04"/>
<line x1="14.000" y1="0.000" x2="14.000" y2="21.000" stroke="#111111" stroke-width="0.04"/>
<line x1="15.000" y1="0.000" x2="15.000" y2="21.000" stroke="#111111" stroke-width="0.04"/>
<line x1="16.000" y1="0.000" x2="16.000" y2="21.000" stroke="#111111" stroke-width="0.04"/>
<line x1="0.000" y1="1.000" x2="17.000" y2="1.000" stroke="#111111" stroke-width="0.04"/>
<line x1="0.000" y1="2.000" x2="17.000" y2="2.000" stroke="#111111" stroke-width="0.04"/>
<line x1="0.000" y1="3.000" x2="17.000" y2="3.000" stroke="#111111" stroke-width="0.04"/>
<line x1="0.000" y1="4.000" x2="17.000" y2="4.000" stroke="#111111" stroke-width="0.04"/>
<line x1="0.000" y1="5.000" x2="17.000" y2="5.000" stroke="#111111" stroke-width="0.04"/>
<line x1="0.000" y1="6.000" x2="17.000" y2="6.000" stroke="#111111" stroke-width="0.04"/>
<line x1="0.000" y1="7.000" x2="17.000" y2="7.000" stroke="#111111" stroke-width="0.04"/>
<line x1="0.000" y1="8.000" x2="17.000" y2="8.000" stroke="#111111" stroke-width="0.04"/>
<line x1="0.000" y1="9.000" x2="17.000" y2="9.000" stroke="#111111" stroke-width="0.04"/>
<line x1="0.000" y1="10.000" x2="17.000" y2="10.000" stroke="#111111" stroke-width="0.04"/>
<line x1="0.000" y1="11.000" x2="17.000" y2="11.000" stroke="#111111" stroke-width="0.04"/>
<line x1="0.000" y1="12.000" x2="17.000" y2="12.000" stroke="#111111" stroke-width="0.04"/>
<line x1="0.000" y1="13.000" x2="17.000" y2="13.000" stroke="#111111" stroke-width="0.04"/>
<line x1="0.000" y1="14.000" x2="17.000" y2="14.000" stroke="#111111" stroke-width="0.04"/>
<line x1="0.000" y1="15.000" x2="17.000" y2="15.000" stroke="#111111" stroke-width="0.04"/>
<line x1="0.000" y1="16.000" x2="17.000" y2="16.000" stroke="#111111" stroke-width="0.04"/>
<line x1="0.000" y1="17.000" x2="17.000" y2="17.000" stroke="#111111" stroke-width="0.04"/>
<line x1="0.000" y1="18.000" x2="17.000" y2="18.000" stroke="#111111" stroke-width="0.04"/>
<line x1="0.000" y1="19.000" x2="17.000" y2="19.000" stroke="#111111" stroke-width="0.04"/>
<line x1="0.000" y1="20.000" x2="17.000" y2="20.000" stroke="#111111" stroke-width="0.04"/>
<line x1="18.000" y1="0.000" x2="18.000" y2="21.000" stroke="#111111" stroke-width="0.04"/>
<line x1="19.000" y1="0.000" x2="19.000" y2="21.000" stroke="#111111" stroke-width="0.04"/>
<line x1="20.000" y1="0.000" x2="20.000" y2="21.000" stroke="#111111" stroke-width="0.04"/>
<line x1="21.000" y1="0.000" x2="21.000" y2="21.000" stroke="#111111" stroke-width="0.04"/>
<line x1="22.000" y1="0.000" x2="22.000" y2="21.000" stroke="#111111" stroke-width="0.04"/>
<line x1="23.000" y1="0.000" x2="23.000" y2="21.000" stroke="#111111" stroke-width="0.04"/>
<line x1="24.000" y1="0.000" x2="24.000" y2="21.000" stroke="#111111" stroke-width="0.04"/>
<line x1="25.000" y1="0.000" x2="25.000" y2="21.000" stroke="#111111" stroke-width="0.04"/>
<line x1="26.000" y1="0.000" x2="26.000" y2="21.000" stroke="#111111" stroke-width="0.04"/>
<line x1="27.000" y1="0.000" x2="27.000" y2="21.000" stroke="#111111" stroke-width="0.04"/>
<line x1="28.000" y1="0.000" x2="28.000" y2="21.000" stroke="#111111" stroke-width="0.04"/>
<line x1="29.000" y1="0.000" x2="29.000" y2="21.000" stroke="#111111" stroke-width="0.04"/>
<line x1="30.000" y1="0.000" x2="30.000" y2="21.000" stroke="#111111" stroke-width="0.04"/>
<line x1="31.000" y1="0.000" x2="31.000" y2="21.000" stroke="#111111" stroke-width="0.04"/>
<line x1="32.000" y1="0.000" x2="32.000" y2="21.000" stroke="#111111" stroke-width="0.04"/>
<line x1="33.000" y1="0.000" x2="33.000" y2="21.000" stroke="#111111" stroke-width="0.04"/>
<line x1="34.000" y1="0.000" x2="34.000" y2="21.000" stroke="#111111" stroke-width="0.04"/>
<line x1="35.000" y1="0.000" x2="35.000" y2="21.000" stroke="#111111" stroke-width="0.04"/>
<line x1="36.000" y1="0.000" x2="36.000" y2="21.000" stroke="#111111" stroke-width="0.04"/>
<line x1="37.000" y1="0.000" x2="37.000" y2="21.000" stroke="#111111" stroke-width="0.04"/>
<line x1="38.000" y1="0.000" x2="38.000" y2="21.000" stroke="#111111" stroke-width="0.04"/>
<line x1="39.000" y1="0.000" x2="39.000" y2="21.000" stroke="#111111" stroke-width="0.04"/>
<line x1="40.000" y1="0.000" x2="40.000" y2="21.000" stroke="#111111" stroke-width="0.04"/>
<line x1="41.000" y1="0.000" x2="41.000" y2="21.000" stroke="#111111" stroke-width="0.04"/>
<line x1="42.000" y1="0.000" x2="42.000" y2="21.000" stroke="#111111" stroke-width="0.04"/>
<line x1="43.000" y1="0.000" x2="43.000" y2="21.000" stroke="#111111" stroke-width="0.04"/>
<line x1="44.000" y1="0.000" x2="44.000" y2="21.000" stroke="#111111" stroke-width="0.04"/>
<line x1="45.000" y1="0.000" x2="45.000" y2="21.000" stroke="#111111" stroke-width="0.04"/>
<line x1="46.000" y1="0.000" x2="46.000" y2="21.000" stroke="#111111" stroke-width="0.04"/>
<line x1="47.000" y1="0.000" x2="47.000" y2="21.000" stroke="#111111" stroke-width="0.04"/>
<line x1="48.000" y1="0.000" x2="48.000" y2="21.000" stroke="#111111" stroke-width="0.04"/>
<line x1="17.000" y1="1.000" x2="49.000" y2="1.000" stroke="#111111" stroke-width="0.04"/>
<line x1="17.000" y1="2.000" x2="49.000" y2="2.000" stroke="#111111" stroke-width="0.04"/>
<line x1="17.000" y1="3.000" x2="49.000" y2="3.000" stroke="#111111" stroke-width="0.04"/>
<line x1="17.000" y1="4.000" x2="49.000" y2="4.000" stroke="#111111" stroke-width="0.04"/>
<line x1="17.000" y1="5.000" x2="49.000" y2="5.000" stroke="#111111" stroke-width="0.04"/>
<line x1="17.000" y1="6.000" x2="49.000" y2="6.000" stroke="#111111" stroke-width="0.04"/>
<line x1="17.000" y1="7.000" x2="49.000" y2="7.000" stroke="#111111" stroke-width="0.04"/>
<line x1="17.000" y1="8.000" x2="49.000" y2="8.000" stroke="#111111" stroke-width="0.04"/>
<line x1="17.000" y1="9.000" x2="49.000" y2="9.000" stroke="#111111" stroke-width="0.04"/>
<line x1="17.000" y1="10.000" x2="49.000" y2="10.000" stroke="#111111" stroke-width="0.04"/>
<line x1="17.000" y1="11.000" x2="49.000" y2="11.000" stroke="#111111" stroke-width="0.04"/>
<line x1="17.000" y1="12.000" x2="49.000" y2="12.000" stroke="#111111" stroke-width="0.04"/>
<line x1="17.000" y1="13.000" x2="49.000" y2="13.000" stroke="#111111" stroke-width="0.04"/>
<line x1="17.000" y1="14.000" x2="49.000" y2="14.000" stroke="#111111" stroke-width="0.04"/>
<line x1="17.000" y1="15.000" x2="49.000" y2="15.000" stroke="#111111" stroke-width="0.04"/>
<line x1="17.000" y1="16.000" x2="49.000" y2="16.000" stroke="#111111" stroke-width="0.04"/>
<line x1="17.000" y1="17.000" x2="49.000" y2="17.000" stroke="#111111" stroke-width="0.04"/>
<line x1="17.000" y1="18.000" x2="49.000" y2="18.000" stroke="#111111" stroke-width="0.04"/>
<line x1="17.000" y1="19.000" x2="49.000" y2="19.000" stroke="#111111" stroke-width="0.04"/>
<line x1="17.000" y1="20.000" x2="49.000" y2="20.000" stroke="#111111" stroke-width="0.04"/>
<line x1="50.000" y1="0.000" x2="50.000" y2="21.000" stroke="#111111" stroke-width="0.04"/>
<line x1="51.000" y1="0.000" x2="51.000" y2="21.000" stroke="#111111" stroke-width="0.04"/>
<line x1="52.000" y1="0.000" x2="52.000" y2="21.000" stroke="#111111" stroke-width="0.04"/>
<line x1="53.000" y1="0.000" x2="53.000" y2="21.000" stroke="#111111" stroke-width="0.04"/>
<line x1="54.000" y1="0.000" x2="54.000" y2="21.000" stroke="#111111" stroke-width="0.04"/>
<line x1="55.000" y1="0.000" x2="55.000" y2="21.000" stroke="#111111" stroke-width="0.04"/>
<line x1="56.000" y1="0.000" x2="56.000" y2="21.000" stroke="#111111" stroke-width="0.04"/>
<line x1="57.000" y1="0.000" x2="57.000" y2="21.000" stroke="#111111" stroke-width="0.04"/>
<line x1="58.000" y1="0.000" x2="58.000" y2="21.000" stroke="#111111" stroke-width="0.04"/>
<line x1="59.000" y1="0.000" x2="59.000" y2="21.000" stroke="#111111" stroke-width="0.04"/>
<line x1="60.000" y1="0.000" x2="60.000" y2="21.000" stroke="#111111" stroke-width="0.04"/>
<line x1="61.000" y1="0.000" x2="61.000" y2="21.000" stroke="#111111" stroke-width="0.04"/>
<line x1="62.000" y1="0.000" x2="62.000" y2="21.000" stroke="#111111" stroke-width="0.04"/>
<line x1="63.000" y1="0.000" x2="63.000" y2="21.000" stroke="#111111" stroke-width="0.04"/>
<line x1="64.000" y1="0.000" x2="64.000" y2="21.000" stroke="#111111" stroke-width="0.04"/>
<line x1="65.000" y1="0.000" x2="65.000" y2="21.000" stroke="#111111" stroke-width="0.04"/>
<line x1="49.000" y1="1.000" x2="66.000" y2="1.000" stroke="#111111" stroke-width="0.04"/>
<line x1="49.000" y1="2.000" x2="66.000" y2="2.000" stroke="#111111" stroke-width="0.04"/>
<line x1="49.000" y1="3.000" x2="66.000" y2="3.000" stroke="#111111" stroke-width="0.04"/>
<line x1="49.000" y1="4.000" x2="66.000" y2="4.000" stroke="#111111" stroke-width="0.04"/>
<line x1="49.000" y1="5.000" x2="66.000" y2="5.000" stroke="#111111" stroke-width="0.04"/>
<line x1="49.000" y1="6.000" x2="66.000" y2="6.000" stroke="#111111" stroke-width="0.04"/>
<line x1="49.000" y1="7.000" x2="66.000" y2="7.000" stroke="#111111" stroke-width="0.04"/>
<line x1="49.000" y1="8.000" x2="66.000" y2="8.000" stroke="#111111" stroke-width="0.04"/>
<line x1="49.000" y1="9.000" x2="66.000" y2="9.000" stroke="#111111" stroke-width="0.04"/>
<line x1="49.000" y1="10.000" x2="66.000" y2="10.000" stroke="#111111" stroke-width="0.04"/>
<line x1="49.000" y1="11.000" x2="66.000" y2="11.000" stroke="#111111" stroke-width="0.04"/>
<line x1="49.000" y1="12.000" x2="66.000" y2="12.000" stroke="#111111" stroke-width="0.04"/>
<line x1="49.000" y1="13.000" x2="66.000" y2="13.000" stroke="#111111" stroke-width="0.04"/>
<line x1="49.000" y1="14.000" x2="66.000" y2="14.000" stroke="#111111" stroke-width="0.04"/>
<line x1="49.000" y1="15.000" x2="66.000" y2="15.000" stroke="#111111" stroke-width="0.04"/>
<line x1="49.000" y1="16.000" x2="66.000" y2="16.000" stroke="#111111" stroke-width="0.04"/>
<line x1="49.000" y1="17.000" x2="66.000" y2="17.000" stroke="#111111" stroke-width="0.04"/>
<line x1="49.000" y1="18.000" x2="66.000" y2="18.000" stroke="#111111" stroke-width="0.04"/>
<line x1="49.000" y1="19.000" x2="66.000" y2="19.000" stroke="#111111" stroke-width="0.04"/>
<line x1="49.000" y1="20.000" x2="66.000" y2="20.000" stroke="#111111" stroke-width="0.04"/>
<line x1="18.000" y1="21.000" x2="18.000" y2="38.000" stroke="#111111" stroke-width="0.04"/>
<line x1="19.000" y1="21.000" x2="19.000" y2="38.000" stroke="#111111" stroke-width="0.04"/>
<line x1="20.000" y1="21.000" x2="20.000" y2="38.000" stroke="#111111" stroke-width="0.04"/>
<line x1="21.000" y1="21.000" x2="21.000" y2="38.000" stroke="#111111" stroke-width="0.04"/>
<line x1="22.000" y1="21.000" x2="22.000" y2="38.000" stroke="#111111" stroke-width="0.04"/>
<line x1="23.000" y1="21.000" x2="23.000" y2="38.000" stroke="#111111" stroke-width="0.04"/>
<line x1="24.000" y1="21.000" x2="24.000" y2="38.000" stroke="#111111" stroke-width="0.04"/>
<line x1="25.000" y1="21.000" x2="25.000" y2="38.000" stroke="#111111" stroke-width="0.04"/>
<line x1="26.000" y1="21.000" x2="26.000" y2="38.000" stroke="#111111" stroke-width="0.04"/>
<line x1="27.000" y1="21.000" x2="27.000" y2="38.000" stroke="#111111" stroke-width="0.04"/>
<line x1="28.000" y1="21.000" x2="28.000" y2="38.000" stroke="#111111" stroke-width="0.04"/>
<line x1="29.000" y1="21.000" x2="29.000" y2="38.000" stroke="#111111" stroke-width="0.04"/>
<line x1="30.000" y1="21.000" x2="30.000" y2="38.000" stroke="#111111" stroke-width="0.04"/>
<line x1="31.000" y1="21.000" x2="31.000" y2="38.000" stroke="#111111" stroke-width="0.04"/>
<line x1="32.000" y1="21.000" x2="32.000" y2="38.000" stroke="#111111" stroke-width="0.04"/>
<line x1="33.000" y1="21.000" x2="33.000" y2="38.000" stroke="#111111" stroke-width="0.04"/>
<line x1="34.000" y1="21.000" x2="34.000" y2="38.000" stroke="#111111" stroke-width="0.04"/>
<line x1="35.000" y1="21.000" x2="35.000" y2="38.000" stroke="#111111" stroke-width="0.04"/>
<line x1="36.000" y1="21.000" x2="36.000" y2="38.000" stroke="#111111" stroke-width="0.04"/>
<line x1="37.000" y1="21.000" x2="37.000" y2="38.000" stroke="#111111" stroke-width="0.04"/>
<line x1="38.000" y1="21.000" x2="38.000" y2="38.000" stroke="#111111" stroke-width="0.04"/>
<line x1="39.000" y1="21.000" x2="39.000" y2="38.000" stroke="#111111" stroke-width="0.04"/>
<line x1="40.000" y1="21.000" x2="40.000" y2="38.000" stroke="#111111" stroke-width="0.04"/>
<line x1="41.000" y1="21.000" x2="41.000" y2="38.000" stroke="#111111" stroke-width="0.04"/>
<line x1="42.000" y1="21.000" x2="42.000" y2="38.000" stroke="#111111" stroke-width="0.04"/>
<line x1="43.000" y1="21.000" x2="43.000" y2="38.000" stroke="#111111" stroke-width="0.04"/>
<line x1="44.000" y1="21.000" x2="44.000" y2="38.000" stroke="#111111" stroke-width="0.04"/>
<line x1="45.000" y1="21.000" x2="45.000" y2="38.000" stroke="#111111" stroke-width="0.04"/>
<line x1="46.000" y1="21.000" x2="46.000" y2="38.000" stroke="#111111" stroke-width="0.04"/>
<line x1="47.000" y1="21.000" x2="47.000" y2="38.000" stroke="#111111" stroke-width="0.04"/>
<line x1="48.000" y1="21.000" x2="48.000" y2="38.000" stroke="#111111" stroke-width="0.04"/>
<line x1="17.000" y1="22.000" x2="49.000" y2="22.000" stroke="#111111" stroke-width="0.04"/>
<line x1="17.000" y1="23.000" x2="49.000" y2="23.000" stroke="#111111" stroke-width="0.04"/>
<line x1="17.000" y1="24.000" x2="49.000" y2="24.000" stroke="#111111" stroke-width="0.04"/>
<line x1="17.000" y1="25.000" x2="49.000" y2="25.000" stroke="#111111" stroke-width="0.04"/>
<line x1="17.000" y1="26.000" x2="49.000" y2="26.000" stroke="#111111" stroke-width="0.04"/>
<line x1="17.000" y1="27.000" x2="49.000" y2="27.000" stroke="#111111" stroke-width="0.04"/>
<line x1="17.000" y1="28.000" x2="49.000" y2="28.000" stroke="#111111" stroke-width="0.04"/>
<line x1="17.000" y1="29.000" x2="49.000" y2="29.000" stroke="#111111" stroke-width="0.04"/>
<line x1="17.000" y1="30.000" x2="49.000" y2="30.000" stroke="#111111" stroke-width="0.04"/>
<line x1="17.000" y1="31.000" x2="49.000" y2="31.000" stroke="#111111" stroke-width="0.04"/>
<line x1="17.000" y1="32.000" x2="49.000" y2="32.000" stroke="#111111" stroke-width="0.04"/>
<line x1="17.000" y1="33.000" x2="49.000" y2="33.000" stroke="#111111" stroke-width="0.04"/>
<line x1="17.000" y1="34.000" x2="49.000" y2="34.000" stroke="#111111" stroke-width="0.04"/>
<line x1="17.000" y1="35.000" x2="49.000" y2="35.000" stroke="#111111" stroke-width="0.04"/>
<line x1="17.000" y1="36.000" x2="49.000" y2="36.000" stroke="#111111" stroke-width="0.04"/>
<line x1="17.000" y1="37.000" x2="49.000" y2="37.000" stroke="#111111" stroke-width="0.04"/>
<rect x="0.000" y="0.000" width="17.000" height="21.000" fill="none" stroke="#111111" stroke-width="0.16"/>
<rect x="17.000" y="0.000" width="32.000" height="21.000" fill="none" stroke="#111111" stroke-width="0.16"/>
<rect x="49.000" y="0.000" width="17.000" height="21.000" fill="none" stroke="#111111" stroke-width="0.16"/>
<rect x="17.000" y="21.000" width="32.000" height="17.000" fill="none" stroke="#111111" stroke-width="0.16"/>
</svg>
