<svg version="1.1" xmlns="http://www.w3.org/2000/svg" style="display: block;" viewBox="0 0 2560 1664" width="2560" height="1664" preserveAspectRatio="none" xmlns:c2pa="http://c2pa.org/manifest"><metadata><c2pa:manifest>AAAMZ2p1bWIAAAAeanVtZGMycGEAEQAQgAAAqgA4m3EDYzJwYQAAAAxBanVtYgAAAEdqdW1kYzJtYQARABCAAACqADibcQN1cm46YzJwYTpiNzIwOWQ2NS02MjA0LTQzYmUtODRiMy01MjE0ZTYzYTcwMGMAAAAB4mp1bWIAAAApanVtZGMyYXMAEQAQgAAAqgA4m3EDYzJwYS5hc3NlcnRpb25zAAAAAO1qdW1iAAAAQWp1bWRjYm9yABEAEIAAAKoAOJtxE2MycGEuYWN0aW9ucy52MgAAAAAYYzJzaHsAoNlJAe4XLxS/cDw5aeoAAACkY2JvcqFnYWN0aW9uc4GjZmFjdGlvbmxjMnBhLmNyZWF0ZWRxZGlnaXRhbFNvdXJjZVR5cGV4Rmh0dHA6Ly9jdi5pcHRjLm9yZy9uZXdzY29kZXMvZGlnaXRhbHNvdXJjZXR5cGUvdHJhaW5lZEFsZ29yaXRobWljTWVkaWFrZGVzY3JpcHRpb252Q3JlYXRlZCBieSBSZWNyYWZ0IEFJLgAAAMRqdW1iAAAAQGp1bWRjYm9yABEAEIAAAKoAOJtxE2MycGEuaGFzaC5kYXRhAAAAABhjMnNoN+N6hf+TqjYJ8eP/voFcKAAAAHxjYm9ypWpleGNsdXNpb25zgaJlc3RhcnQY22ZsZW5ndGgZEIxkbmFtZW5qdW1iZiBtYW5pZmVzdGNhbGdmc2hhMjU2ZGhhc2hYIOA7LzfQIOxMFEwYdQawW9usp3zSjdrlBOjoK5EDTI2ZY3BhZEkAAAAAAAAAAAAAAAI0anVtYgAAACdqdW1kYzJjbAARABCAAACqADibcQNjMnBhLmNsYWltLnYyAAAAAgVjYm9ypmppbnN0YW5jZUlEeCx4bXA6aWlkOjc4Y2UxMzI1LWRhZjMtNGQzNi1hOThjLWNhYjMxZDUxNGU0NXRjbGFpbV9nZW5lcmF0b3JfaW5mb6NkbmFtZWpyZWNyYWZ0LmFpZ3ZlcnNpb254KDgxY2U4MmUyYzVjM2NiZmJlOGM2ZmJlMTc5ZDVmOGQ5MWM0MDljZTF3b3JnLmNvbnRlbnRhdXRoLmMycGFfcnNmMC45MC43aXNpZ25hdHVyZXhNc2VsZiNqdW1iZj0vYzJwYS91cm46YzJwYTpiNzIwOWQ2NS02MjA0LTQzYmUtODRiMy01MjE0ZTYzYTcwMGMvYzJwYS5zaWduYXR1cmVyY3JlYXRlZF9hc3NlcnRpb25zgqJjdXJseCpzZWxmI2p1bWJmPWMycGEuYXNzZXJ0aW9ucy9jMnBhLmFjdGlvbnMudjJkaGFzaFggoaf8p1AZIhO2Oi4cwHpvqakvlKMm8VCGBmOYT23wbnKiY3VybHgpc2VsZiNqdW1iZj1jMnBhLmFzc2VydGlvbnMvYzJwYS5oYXNoLmRhdGFkaGFzaFggkdDdOpzf6Ckrv2TAcS4yJC12AEtRthgxXjsihxuudfBoZGM6dGl0bGV4GlJlY3JhZnQgQUkgR2VuZXJhdGVkIEltYWdlY2FsZ2ZzaGEyNTYAAAfcanVtYgAAAChqdW1kYzJjcwARABCAAACqADibcQNjMnBhLnNpZ25hdHVyZQAAAAesY2JvctKEWQOwogEmGCGCWQHnMIIB4zCCAYmgAwIBAgIJALfeWmNDUW56MAoGCCqGSM49BAMCMEAxHzAdBgNVBAMMFlJlY3JhZnQgU3RhZ2luZyBEZXYgQ0ExEDAOBgNVBAoMB1JlY3JhZnQxCzAJBgNVBAYTAlVTMB4XDTI2MDYxMjE5NDM1MFoXDTI3MDYxMjE5NDM1MFowNzELMAkGA1UEBhMCVVMxEzARBgNVBAoTClJlY3JhZnQgQUkxEzARBgNVBAMTCnJlY3JhZnQuYWkwWTATBgcqhkjOPQIBBggqhkjOPQMBBwNCAARKaTVbACsg/DeG3LeOxYdID/VA6EFG73E6Oknb+KIiCFJygRUz4ueN2z/t2qYb6CIUvS8RvgOiiClfoqsYtw81o3UwczAMBgNVHRMBAf8EAjAAMA4GA1UdDwEB/wQEAwIGwDATBgNVHSUEDDAKBggrBgEFBQcDBDAdBgNVHQ4EFgQULzHpBen96SL1y4IPHa8MkMshXf0wHwYDVR0jBBgwFoAUAgsqOBrKqpdK//m/kxZo7ZR4ebcwCgYIKoZIzj0EAwIDSAAwRQIgU8hKW0aXvvk8SQgVFNkax69Ym9ae8GsT2RZTQw+B51ACIQC0D4BkEoRD4N0r2ZRkNy0HZaW3WICy/QZGN95ilF4yzFkBvTCCAbkwggFfoAMCAQICCQCc+Wg7T6ATbzAKBggqhkjOPQQDAjBAMR8wHQYDVQQDDBZSZWNyYWZ0IFN0YWdpbmcgRGV2IENBMRAwDgYDVQQKDAdSZWNyYWZ0MQswCQYDVQQGEwJVUzAeFw0yNjA2MTIxOTQwMTZaFw0yODA2MTExOTQwMTZaMEAxHzAdBgNVBAMMFlJlY3JhZnQgU3RhZ2luZyBEZXYgQ0ExEDAOBgNVBAoMB1JlY3JhZnQxCzAJBgNVBAYTAlVTMFkwEwYHKoZIzj0CAQYIKoZIzj0DAQcDQgAEQ9IQBlcVbKaKPYrQSfOhL/00s7xUDC7RinIuLO/I1k99y9yh6oWF9kPxaP+tx1v1PeOL3yrVquJ730H0ZGiDyqNCMEAwDwYDVR0TAQH/BAUwAwEB/zAOBgNVHQ8BAf8EBAMCAYYwHQYDVR0OBBYEFAILKjgayqqXSv/5v5MWaO2UeHm3MAoGCCqGSM49BAMCA0gAMEUCIFQwNImLlYDeQhjgF+ZiqTbgcuzSqmOJw3Q2lQ/hu83FAiEA9O8cLm/xfoVLqB4jtdbuHzi3WL+p2RN+DRGkwpYswVuhY3BhZFkDpAAAAAAAAAAAAAAAAAAAAAAAAAAAAAAAAAAAAAAAAAAAAAAAAAAAAAAAAAAAAAAAAAAAAAAAAAAAAAAAAAAAAAAAAAAAAAAAAAAAAAAAAAAAAAAAAAAAAAAAAAAAAAAAAAAAAAAAAAAAAAAAAAAAAAAAAAAAAAAAAAAAAAAAAAAAAAAAAAAAAAAAAAAAAAAAAAAAAAAAAAAAAAAAAAAAAAAAAAAAAAAAAAAAAAAAAAAAAAAAAAAAAAAAAAAAAAAAAAAAAAAAAAAAAAAAAAAAAAAAAAAAAAAAAAAAAAAAAAAAAAAAAAAAAAAAAAAAAAAAAAAAAAAAAAAAAAAAAAAAAAAAAAAAAAAAAAAAAAAAAAAAAAAAAAAAAAAAAAAAAAAAAAAAAAAAAAAAAAAAAAAAAAAAAAAAAAAAAAAAAAAAAAAAAAAAAAAAAAAAAAAAAAAAAAAAAAAAAAAAAAAAAAAAAAAAAAAAAAAAAAAAAAAAAAAAAAAAAAAAAAAAAAAAAAAAAAAAAAAAAAAAAAAAAAAAAAAAAAAAAAAAAAAAAAAAAAAAAAAAAAAAAAAAAAAAAAAAAAAAAAAAAAAAAAAAAAAAAAAAAAAAAAAAAAAAAAAAAAAAAAAAAAAAAAAAAAAAAAAAAAAAAAAAAAAAAAAAAAAAAAAAAAAAAAAAAAAAAAAAAAAAAAAAAAAAAAAAAAAAAAAAAAAAAAAAAAAAAAAAAAAAAAAAAAAAAAAAAAAAAAAAAAAAAAAAAAAAAAAAAAAAAAAAAAAAAAAAAAAAAAAAAAAAAAAAAAAAAAAAAAAAAAAAAAAAAAAAAAAAAAAAAAAAAAAAAAAAAAAAAAAAAAAAAAAAAAAAAAAAAAAAAAAAAAAAAAAAAAAAAAAAAAAAAAAAAAAAAAAAAAAAAAAAAAAAAAAAAAAAAAAAAAAAAAAAAAAAAAAAAAAAAAAAAAAAAAAAAAAAAAAAAAAAAAAAAAAAAAAAAAAAAAAAAAAAAAAAAAAAAAAAAAAAAAAAAAAAAAAAAAAAAAAAAAAAAAAAAAAAAAAAAAAAAAAAAAAAAAAAAAAAAAAAAAAAAAAAAAAAAAAAAAAAAAAAAAAAAAAAAAAAAAAAAAAAAAAAAAAAAAAAAAAAAAAAAAAAAAAAAAAAAAAAAAAAAAAAAAAAAAAAAAAAAAAAAAAAAAAAAAAAAAAAAAAAAAAAAAAAAAAAAAAAAAAAAAAAAAAAAAAAAAAAAAAAAAAAAAAAAAAA9lhAOmZ952c83+i4Z0t+wP3tJn4x0k547d+8pumVzP2zLu0iRAsCKKzePe4f08kBf731FWeRV6Cp8R5uIAMC6NsT2A==</c2pa:manifest></metadata>
<path transform="translate(0,0)" fill="rgb(255,255,255)" d="M 0 0 L 2560 0 L 2560 1664 L 0 1664 L 0 0 z"/>
<path transform="translate(0,0)" fill="rgb(12,12,12)" d="M 939.274 635.597 C 943.311 633.35 1107.32 633.535 1116.61 635.028 L 1116.57 734.763 C 1111.2 735.989 916.771 736.996 904.005 734.789 L 904.131 635.714 L 939.274 635.597 z"/>
<path transform="translate(0,0)" fill="rgb(12,12,12)" d="M 939.274 635.597 L 1006.01 635.657 L 1006.03 734.085 L 938.267 734.038 C 931.273 734.037 910.051 733.658 904.005 734.789 L 904.131 635.714 L 939.274 635.597 z"/>
<path transform="translate(0,0)" fill="rgb(247,246,246)" d="M 939.274 635.597 C 943.311 633.35 1107.32 633.535 1116.61 635.028 C 1106.38 636.046 1089.87 635.713 1079.19 635.737 L 1014.71 635.745 L 1014.73 734.001 L 1082.41 733.965 C 1089.18 733.964 1111.29 733.583 1116.57 734.763 C 1111.2 735.989 916.771 736.996 904.005 734.789 C 910.051 733.658 931.273 734.037 938.267 734.038 L 1006.03 734.085 L 1006.01 635.657 L 939.274 635.597 z"/>
<path transform="translate(0,0)" fill="rgb(12,12,12)" d="M 533.951 499.207 L 636.788 499.409 L 636.317 599.112 L 533.809 599.133 L 533.951 499.207 z"/>
<path transform="translate(0,0)" fill="rgb(12,12,12)" d="M 1119.39 349.474 L 1221.71 349.325 L 1221.93 449.095 L 1119.5 449.123 L 1119.39 349.474 z"/>
<path transform="translate(0,0)" fill="rgb(12,12,12)" d="M 1012.82 454.602 L 1114.86 454.643 L 1114.79 554.665 L 1012.8 554.583 L 1012.82 454.602 z"/>
<path transform="translate(0,0)" fill="rgb(12,12,12)" d="M 914.908 842.502 C 944.593 841.85 976.26 842.418 1006.1 842.431 L 1005.99 907.674 C 1005.98 916.055 1006.53 933.517 1005.38 940.786 C 1002 942.493 997.717 941.964 993.75 941.922 L 904.029 941.986 L 904.143 842.582 L 914.908 842.502 z"/>
<path transform="translate(0,0)" fill="rgb(12,12,12)" d="M 904.038 1054.1 L 1006.08 1053.87 L 1006.01 1153.06 L 903.941 1153.09 L 904.038 1054.1 z"/>
<path transform="translate(0,0)" fill="rgb(12,12,12)" d="M 1014.62 1054.06 L 1116.66 1053.79 L 1116.57 1152.61 C 1108.95 1154.83 1027.93 1153.09 1014.74 1153.07 L 1014.62 1054.06 z"/>
<path transform="translate(0,0)" fill="rgb(12,12,12)" d="M 1014.43 842.463 C 1048.37 842.181 1082.32 842.128 1116.26 842.304 L 1116.07 942.052 L 1014.37 941.894 L 1014.43 842.463 z"/>
<path transform="translate(0,0)" fill="rgb(12,12,12)" d="M 1866.8 842.191 L 1968.07 842.078 L 1968.14 941.903 L 1866.8 941.967 C 1867.14 908.957 1866.82 875.251 1866.8 842.191 z"/>
<path transform="translate(0,0)" fill="rgb(12,12,12)" d="M 1125.66 842.768 L 1227.11 842.691 L 1227.12 941.96 L 1125.66 941.989 L 1125.66 842.768 z"/>
<path transform="translate(0,0)" fill="rgb(12,12,12)" d="M 1756.51 842.237 L 1857.63 842.263 L 1857.43 941.814 C 1847.39 942.48 1831.71 942.033 1821.4 942.025 L 1756.83 941.953 L 1756.51 842.237 z"/>
<path transform="translate(0,0)" fill="rgb(12,12,12)" d="M 1125.51 635.651 L 1227.25 635.77 L 1227.22 734.378 L 1125.71 734.311 L 1125.51 635.651 z"/>
<path transform="translate(0,0)" fill="rgb(12,12,12)" d="M 1866.92 1054.17 L 1968.14 1054.04 L 1968.08 1153.09 L 1866.87 1153.08 L 1866.92 1054.17 z"/>
<path transform="translate(0,0)" fill="rgb(12,12,12)" d="M 1756.34 1054.11 L 1857.51 1054.04 L 1857.3 1153.03 L 1756.44 1153.14 L 1756.34 1054.11 z"/>
<path transform="translate(0,0)" fill="rgb(12,12,12)" d="M 1125.57 1054.69 L 1227.23 1054.69 L 1227.14 1153.14 L 1125.78 1153.23 L 1125.57 1054.69 z"/>
<path transform="translate(0,0)" fill="rgb(12,12,12)" d="M 1278.87 1054.93 L 1380.32 1054.94 L 1380.31 1153.09 L 1278.8 1153.03 L 1278.87 1054.93 z"/>
<path transform="translate(0,0)" fill="rgb(12,12,12)" d="M 533.629 842.622 L 634.847 842.552 L 634.88 940.987 L 533.344 941.065 C 534.241 909.915 533.565 874.079 533.629 842.622 z"/>
<path transform="translate(0,0)" fill="rgb(12,12,12)" d="M 1278.8 842.577 L 1380.32 842.7 L 1380.41 940.538 L 1278.8 940.394 L 1278.8 842.577 z"/>
<path transform="translate(0,0)" fill="rgb(12,12,12)" d="M 793.001 1054.9 L 894.078 1054.83 L 894.143 1153.04 L 792.998 1153.12 L 793.001 1054.9 z"/>
<path transform="translate(0,0)" fill="rgb(12,12,12)" d="M 533.394 949.097 L 634.697 948.811 L 634.803 1046.85 L 533.276 1046.77 L 533.394 949.097 z"/>
<path transform="translate(0,0)" fill="rgb(12,12,12)" d="M 1278.69 637.004 L 1380.33 637.048 L 1380.44 734.596 L 1278.77 734.594 L 1278.69 637.004 z"/>
<path transform="translate(0,0)" fill="rgb(12,12,12)" d="M 792.895 635.8 L 894.123 635.749 L 894.242 733.684 L 792.963 733.652 L 792.895 635.8 z"/>
<path transform="translate(0,0)" fill="rgb(12,12,12)" d="M 1976.68 842.645 L 2077.69 842.668 L 2077.6 940.848 C 2044.27 941.315 2010.17 940.918 1976.79 940.886 L 1976.68 842.645 z"/>
<path transform="translate(0,0)" fill="rgb(12,12,12)" d="M 643.214 1054.71 L 744.066 1054.53 L 743.994 1153.01 L 643.378 1153.01 L 643.214 1054.71 z"/>
<path transform="translate(0,0)" fill="rgb(12,12,12)" d="M 1976.47 636.135 L 2077.7 636.183 L 2077.58 734.22 L 1976.71 734.095 L 1976.47 636.135 z"/>
<path transform="translate(0,0)" fill="rgb(12,12,12)" d="M 1391.05 637.192 L 1492.97 637.107 L 1492.93 734.246 L 1390.94 734.299 L 1391.05 637.192 z"/>
<path transform="translate(0,0)" fill="rgb(12,12,12)" d="M 1278.84 949.043 L 1380.23 949.086 L 1380.49 1046.81 L 1315.86 1046.84 C 1304.51 1046.84 1289.67 1047.31 1278.79 1046.45 L 1278.84 949.043 z"/>
<path transform="translate(0,0)" fill="rgb(12,12,12)" d="M 1976.74 1054.94 L 2077.62 1055.26 L 2077.73 1153.02 C 2048.65 1154.31 2006.67 1153.11 1976.72 1153.12 L 1976.74 1054.94 z"/>
<path transform="translate(0,0)" fill="rgb(12,12,12)" d="M 1646.88 1055.12 L 1747.49 1054.91 L 1747.6 1153.13 L 1646.72 1153.02 L 1646.88 1055.12 z"/>
<path transform="translate(0,0)" fill="rgb(12,12,12)" d="M 1976.55 949.068 L 2077.66 949.06 L 2077.65 1046.71 L 1976.2 1046.69 C 1976.1 1014.15 1976.21 981.608 1976.55 949.068 z"/>
<path transform="translate(0,0)" fill="rgb(12,12,12)" d="M 643.305 636.478 L 744.178 636.286 L 744.198 734.224 L 643.18 734.135 L 643.305 636.478 z"/>
<path transform="translate(0,0)" fill="rgb(12,12,12)" d="M 1867.02 636.463 C 1900.18 635.927 1934.76 636.314 1968.02 636.27 L 1968.04 734.153 L 1866.9 734.136 C 1866.87 702.859 1866.02 667.459 1867.02 636.463 z"/>
<path transform="translate(0,0)" fill="rgb(12,12,12)" d="M 1646.79 949.268 L 1748.01 949.356 L 1748.08 1046.76 L 1646.74 1046.55 L 1646.79 949.268 z"/>
<path transform="translate(0,0)" fill="rgb(12,12,12)" d="M 1646.74 842.615 L 1747.65 842.545 C 1747.33 875.247 1747.28 907.951 1747.49 940.654 C 1717.12 941.764 1677.75 940.734 1646.81 940.744 L 1646.74 842.615 z"/>
<path transform="translate(0,0)" fill="rgb(12,12,12)" d="M 533.226 1054.87 L 634.115 1055.01 L 634.01 1152.95 C 601.037 1153.52 566.447 1153.11 533.361 1153.18 L 533.226 1054.87 z"/>
<path transform="translate(0,0)" fill="rgb(12,12,12)" d="M 792.843 842.975 L 893.955 842.96 L 894.033 940.383 L 792.718 940.271 L 792.843 842.975 z"/>
<path transform="translate(0,0)" fill="rgb(12,12,12)" d="M 1808.87 636.5 L 1857.4 636.479 L 1857.34 734.171 L 1803.75 734.202 L 1756.65 734.186 L 1756.53 636.607 L 1808.87 636.5 z"/>
<path transform="translate(0,0)" fill="rgb(12,12,12)" d="M 1646.81 636.439 L 1747.57 636.688 L 1747.35 734.123 L 1646.57 734.225 L 1646.81 636.439 z"/>
<path transform="translate(0,0)" fill="rgb(12,12,12)" d="M 1502.33 636.875 L 1602.92 636.794 L 1602.9 734.216 L 1502.25 734.242 L 1502.33 636.875 z"/>
<path transform="translate(0,0)" fill="rgb(12,12,12)" d="M 792.778 949.137 L 893.901 949.147 L 893.879 1045.9 L 792.68 1045.9 L 792.778 949.137 z"/>
<path transform="translate(0,0)" fill="rgb(12,12,12)" d="M 423.139 636.876 L 523.443 636.916 L 523.723 734.162 L 423.171 734.311 L 423.139 636.876 z"/>
<path transform="translate(0,0)" fill="rgb(12,12,12)" d="M 533.812 636.657 L 634.16 636.602 L 634.148 734.044 L 533.767 733.959 L 533.812 636.657 z"/>
<path transform="translate(0,0)" fill="rgb(12,12,12)" d="M 1976.29 743.328 L 2077.68 743.353 L 2077.78 834.465 L 1976.19 834.343 L 1976.29 743.328 z"/>
<path transform="translate(0,0)" fill="rgb(12,12,12)" d="M 1646.87 743.233 L 1747.99 743.332 L 1748.01 834.486 L 1646.78 834.418 L 1646.87 743.233 z"/>
<path transform="translate(0,0)" fill="rgb(12,12,12)" d="M 1125.9 743.437 L 1227.26 743.348 L 1227.08 834.19 L 1125.79 834.297 L 1125.9 743.437 z"/>
<path transform="translate(0,0)" fill="rgb(12,12,12)" d="M 1279 743.417 L 1380.28 743.449 L 1380.18 834.225 L 1278.79 834.451 C 1278.71 804.107 1278.78 773.761 1279 743.417 z"/>
<path transform="translate(0,0)" fill="rgb(12,12,12)" d="M 1391.02 743.423 L 1493.19 743.346 L 1493.16 833.303 L 1390.93 833.362 L 1391.02 743.423 z"/>
<path transform="translate(0,0)" fill="rgb(12,12,12)" d="M 533.31 743.223 L 634.804 743.203 C 634.942 773.557 634.897 803.911 634.669 834.264 L 533.697 834.235 C 532.848 804.734 533.37 772.901 533.31 743.223 z"/>
<path transform="translate(0,0)" fill="rgb(12,12,12)" d="M 792.928 742.979 L 893.909 742.898 L 893.709 833.841 L 792.863 833.885 L 792.928 742.979 z"/>
</svg>